HIERARCHY
ROOT pelvis
{
  OFFSET 0 100 0
  CHANNELS 6 Xposition Yposition Zposition Zrotation Xrotation Yrotation
  JOINT pelvis_right_femur
  {
    OFFSET -10.78128 -3.44521 -0.5502486
    CHANNELS 3 Zrotation Xrotation Yrotation
    JOINT right_femur_tibia
    {
      OFFSET -0.8047443 -44.0398 -0.1307829
      CHANNELS 3 Zrotation Xrotation Yrotation
      JOINT right_tibia_foot
      {
        OFFSET 3.006224 -47.83518 -5
        CHANNELS 3 Zrotation Xrotation Yrotation
        End Site
        {
          OFFSET 0 -5 15
        }
      }
    }
  }
  JOINT pelvis_left_femur
  {
    OFFSET 10.78128 -3.44521 -0.5502486
    CHANNELS 3 Zrotation Xrotation Yrotation
    JOINT left_femur_tibia
    {
      OFFSET 0.8047443 -44.0398 -0.1307829
      CHANNELS 3 Zrotation Xrotation Yrotation
      JOINT left_tibia_foot
      {
        OFFSET -4.370144 -48.10324 -4.275266
        CHANNELS 3 Zrotation Xrotation Yrotation
        End Site
        {
          OFFSET 0 -5 15
        }
      }
    }
  }
  JOINT pelvis_spine1
  {
    OFFSET 0 6.468898 -3.129235
    CHANNELS 3 Zrotation Xrotation Yrotation
    JOINT spine1
    {
      OFFSET 0 23.15396 4.99043
      CHANNELS 3 Zrotation Xrotation Yrotation
      JOINT spine2
      {
        OFFSET 0 20.79997 -5.064912
        CHANNELS 3 Zrotation Xrotation Yrotation
        JOINT neck
        {
          OFFSET 0 14.38658 9.616178
          CHANNELS 3 Zrotation Xrotation Yrotation
          End Site
          {
            OFFSET 0 20 0
          }
        }
      }
      JOINT right_manubrium
      {
        OFFSET -5.722621 16.35077 3.967754
        CHANNELS 3 Zrotation Xrotation Yrotation
        JOINT right_clavicle
        {
          OFFSET -13.16364 1.694482 -4.693211
          CHANNELS 3 Zrotation Xrotation Yrotation
          JOINT right_humerus
          {
            OFFSET -28.5034 -0.3100689 -2.792744
            CHANNELS 3 Zrotation Xrotation Yrotation
            JOINT right_radius
            {
              OFFSET -25.15693 0.02248979 -1.271978
              CHANNELS 3 Zrotation Xrotation Yrotation
              End Site
              {
                OFFSET -15 0 0
              }
            }
          }
        }
      }
      JOINT left_manubrium
      {
        OFFSET 5.722621 16.35077 3.967754
        CHANNELS 3 Zrotation Xrotation Yrotation
        JOINT left_clavicle
        {
          OFFSET 13.16364 1.694482 -4.693211
          CHANNELS 3 Zrotation Xrotation Yrotation
          JOINT left_humerus
          {
            OFFSET 29.39168 -1.063119 -2.237045
            CHANNELS 3 Zrotation Xrotation Yrotation
            JOINT left_radius
            {
              OFFSET 24.59957 -0.9528479 0.9047498
              CHANNELS 3 Zrotation Xrotation Yrotation
              End Site
              {
                OFFSET 15 -0 -0
              }
            }
          }
        }
      }
    }
  }
}
MOTION
Frames: 17
Frame Time: 0.0416666666667
-1398.461 81.61531 2752.378 -15.06893 -6.947193 -72.96838 1.435739 4.480525 6.687108 -0 34.17487 -0 5.835767 -18.76796 -12.24372 -2.975449 1.725253 -6.825367 -0 39.75638 -0 -10.84768 -12.73492 20.33786 -2.198563 0.7213549 7.128081 -0.659993 8.867483 -4.126896 1.332825 23.22164 8.5458 3.595911 -19.85296 9.164825 4.697254 -19.54491 10.79967 79.91114 41.71947 -7.948927 -0 0 15.79361 -31.23425 21.14471 16.29733 3.712836 -18.55786 -1.391556 -92.69954 28.72594 25.37937 0 0 -17.14181 -2.0684 13.42322 20.29196
-1405.053 81.65916 2754.471 -15.09115 -6.897985 -73.15245 1.435684 4.480294 6.687067 -0 34.17508 -0 5.835788 -18.76795 -12.24381 -2.975497 1.725582 -6.825393 -0 39.75616 -0 -10.84761 -12.73499 20.33786 -2.198543 0.7213498 7.128052 -0.660001 8.867514 -4.126911 1.33283 23.22163 8.545818 3.595915 -19.8529 9.16484 4.697265 -19.54486 10.79968 79.91125 41.71937 -7.949075 -0 0 15.79357 -31.23432 21.14478 16.29736 3.71287 -18.5579 -1.391595 -92.69947 28.72585 25.37924 0 0 -17.14184 -2.068398 13.42321 20.29194
-1411.651 81.70301 2756.541 -15.11322 -6.848708 -73.33646 1.435639 4.480037 6.687021 -0 34.17524 -0 5.83578 -18.76795 -12.2439 -2.975542 1.725955 -6.825426 -0 39.75601 -0 -10.84754 -12.73506 20.33787 -2.198521 0.7213463 7.128017 -0.6600076 8.867542 -4.126929 1.332834 23.22161 8.545836 3.59592 -19.85285 9.164854 4.697278 -19.5448 10.79969 79.91138 41.71929 -7.949236 -0 0 15.79351 -31.23439 21.14485 16.29738 3.712906 -18.55793 -1.39163 -92.6994 28.72578 25.3791 0 0 -17.14188 -2.0684 13.42322 20.29192
-1418.257 81.74687 2758.59 -15.13514 -6.799361 -73.52044 1.435607 4.479772 6.686973 -0 34.17536 -0 5.835744 -18.76795 -12.24399 -2.975582 1.726347 -6.825463 -0 39.75592 -0 -10.84749 -12.73512 20.33788 -2.198498 0.7213446 7.127979 -0.6600124 8.867565 -4.126949 1.332837 23.22161 8.545853 3.595925 -19.85281 9.164868 4.697291 -19.54474 10.79969 79.91151 41.71922 -7.949398 -0 0 15.79345 -31.23443 21.14491 16.29738 3.712941 -18.55797 -1.391661 -92.69934 28.72573 25.37897 0 0 -17.14192 -2.068404 13.42323 20.29191
-1424.869 81.79073 2760.617 -15.15689 -6.749942 -73.70437 1.435587 4.479515 6.686925 -0 34.17542 -0 5.835684 -18.76795 -12.24408 -2.975615 1.726732 -6.825501 -0 39.75591 -0 -10.84745 -12.73517 20.33789 -2.198474 0.7213447 7.127941 -0.6600151 8.867582 -4.126968 1.332839 23.2216 8.545868 3.59593 -19.85278 9.164879 4.697304 -19.54469 10.7997 79.91163 41.71917 -7.949553 -0 0 15.79339 -31.23445 21.14496 16.29738 3.712974 -18.55801 -1.391685 -92.69928 28.7257 25.37885 0 0 -17.14197 -2.068411 13.42325 20.29191
-1431.488 81.8346 2762.622 -15.17848 -6.70045 -73.88826 1.435583 4.479282 6.686881 -0 34.17542 -0 5.835603 -18.76795 -12.24416 -2.97564 1.727087 -6.825539 -0 39.75598 -0 -10.84743 -12.73521 20.33789 -2.198453 0.7213465 7.127906 -0.6600158 8.867592 -4.126986 1.33284 23.2216 8.545881 3.595936 -19.85276 9.164889 4.697316 -19.54463 10.79969 79.91174 41.71914 -7.94969 -0 0 15.79332 -31.23445 21.145 16.29737 3.713002 -18.55805 -1.391701 -92.69924 28.72569 25.37875 0 0 -17.14201 -2.068419 13.42327 20.29192
-1438.113 81.87847 2764.605 -15.19991 -6.650883 -74.07212 1.435592 4.479087 6.686843 -0 34.17537 -0 5.835509 -18.76795 -12.24422 -2.975654 1.727391 -6.825573 -0 39.7561 -0 -10.84742 -12.73523 20.3379 -2.198434 0.72135 7.127875 -0.6600143 8.867594 -4.127002 1.332841 23.2216 8.54589 3.59594 -19.85274 9.164895 4.697326 -19.54459 10.79969 79.91182 41.71913 -7.949801 -0 0 15.79326 -31.23444 21.14502 16.29735 3.713023 -18.55807 -1.391709 -92.69922 28.72569 25.37867 0 0 -17.14205 -2.06843 13.4233 20.29193
-1444.745 81.92235 2766.567 -15.22116 -6.601241 -74.25594 1.435614 4.478939 6.686813 -0 34.17527 -0 5.835407 -18.76795 -12.24427 -2.975658 1.727627 -6.825602 -0 39.75628 -0 -10.84743 -12.73524 20.33791 -2.19842 0.7213547 7.127849 -0.660011 8.86759 -4.127014 1.33284 23.2216 8.545896 3.595944 -19.85274 9.164898 4.697333 -19.54456 10.79969 79.91189 41.71915 -7.949882 -0 0 15.79321 -31.2344 21.14503 16.29732 3.713038 -18.5581 -1.391708 -92.6992 28.72572 25.37863 0 0 -17.14209 -2.068441 13.42333 20.29195
-1451.383 81.96624 2768.506 -15.24225 -6.551524 -74.43974 1.435647 4.478847 6.686794 -0 34.17512 -0 5.835304 -18.76796 -12.24429 -2.975652 1.727784 -6.825625 -0 39.7565 -0 -10.84746 -12.73524 20.33791 -2.19841 0.7213603 7.127831 -0.6600061 8.867579 -4.127023 1.332838 23.22161 8.545898 3.595947 -19.85275 9.164898 4.697338 -19.54454 10.79968 79.91192 41.71918 -7.949927 -0 0 15.79317 -31.23435 21.14502 16.29729 3.713045 -18.55811 -1.391699 -92.69921 28.72576 25.37861 0 0 -17.14212 -2.068452 13.42335 20.29198
-1458.028 82.01014 2770.423 -15.26316 -6.501732 -74.6235 1.435688 4.478813 6.686784 -0 34.17495 -0 5.835206 -18.76796 -12.2443 -2.975636 1.727855 -6.825639 -0 39.75674 -0 -10.84749 -12.73522 20.33792 -2.198405 0.7213664 7.127821 -0.6599999 8.867562 -4.127028 1.332836 23.22162 8.545895 3.595948 -19.85278 9.164895 4.69734 -19.54453 10.79967 79.91193 41.71923 -7.949937 -0 0 15.79314 -31.23428 21.14499 16.29726 3.713044 -18.55812 -1.391683 -92.69923 28.72582 25.37862 0 0 -17.14213 -2.068462 13.42338 20.292
-1464.678 82.05404 2772.319 -15.2839 -6.451865 -74.80725 1.435735 4.478838 6.686786 -0 34.17476 -0 5.835121 -18.76797 -12.24429 -2.975612 1.727838 -6.825645 -0 39.757 -0 -10.84754 -12.73519 20.33792 -2.198406 0.7213727 7.12782 -0.659993 8.867542 -4.127028 1.332833 23.22163 8.54589 3.595949 -19.85281 9.164889 4.69734 -19.54454 10.79966 79.91191 41.7193 -7.949911 -0 0 15.79313 -31.23421 21.14496 16.29723 3.713035 -18.55811 -1.391661 -92.69926 28.72588 25.37866 0 0 -17.14214 -2.068471 13.4234 20.29203
-1471.336 82.09794 2774.192 -15.30446 -6.401926 -74.99096 1.435784 4.478917 6.686798 -0 34.17456 -0 5.835051 -18.76797 -12.24426 -2.975582 1.72774 -6.825643 -0 39.75724 -0 -10.84759 -12.73515 20.33792 -2.198411 0.7213788 7.127827 -0.6599857 8.867518 -4.127024 1.33283 23.22164 8.545881 3.595948 -19.85284 9.164881 4.697336 -19.54456 10.79965 79.91186 41.71937 -7.949853 -0 0 15.79313 -31.23414 21.14491 16.2972 3.71302 -18.5581 -1.391634 -92.6993 28.72595 25.37873 0 0 -17.14214 -2.068478 13.42342 20.29205
-1477.999 82.14185 2776.044 -15.32485 -6.351916 -75.17466 1.435832 4.479043 6.686819 -0 34.17437 -0 5.835001 -18.76798 -12.24421 -2.975548 1.727569 -6.825633 -0 39.75746 -0 -10.84765 -12.7351 20.33792 -2.198421 0.7213842 7.127841 -0.6599785 8.867493 -4.127017 1.332826 23.22165 8.545869 3.595946 -19.85288 9.164871 4.69733 -19.54459 10.79964 79.91179 41.71944 -7.949768 -0 0 15.79315 -31.23407 21.14486 16.29717 3.712999 -18.55808 -1.391605 -92.69935 28.72602 25.37881 0 0 -17.14213 -2.068483 13.42343 20.29208
-1484.668 82.18575 2777.873 -15.34506 -6.301837 -75.35833 1.435877 4.479206 6.686847 -0 34.17419 -0 5.834974 -18.76798 -12.24415 -2.975512 1.72734 -6.825615 -0 39.75765 -0 -10.8477 -12.73505 20.33792 -2.198435 0.7213887 7.127861 -0.659972 8.867469 -4.127006 1.332823 23.22166 8.545856 3.595944 -19.85292 9.16486 4.697322 -19.54463 10.79963 79.91171 41.71952 -7.949662 -0 0 15.79317 -31.23401 21.1448 16.29715 3.712975 -18.55806 -1.391576 -92.69941 28.72609 25.37891 0 0 -17.14211 -2.068486 13.42344 20.2921
-1491.344 82.22965 2779.681 -15.36511 -6.251692 -75.54197 1.435915 4.479395 6.68688 -0 34.17405 -0 5.834969 -18.76799 -12.24408 -2.975477 1.727068 -6.825592 -0 39.75779 -0 -10.84775 -12.735 20.33791 -2.198451 0.721392 7.127886 -0.6599664 8.867446 -4.126993 1.332819 23.22167 8.545843 3.59594 -19.85296 9.164849 4.697313 -19.54467 10.79963 79.91161 41.71959 -7.949542 -0 0 15.79321 -31.23396 21.14475 16.29713 3.712948 -18.55803 -1.391547 -92.69946 28.72615 25.37901 0 0 -17.14208 -2.068486 13.42344 20.29211
-1498.025 82.27355 2781.466 -15.38498 -6.201482 -75.72559 1.435945 4.479596 6.686917 -0 34.17394 -0 5.834987 -18.76799 -12.24401 -2.975444 1.726772 -6.825565 -0 39.75788 -0 -10.8478 -12.73495 20.33791 -2.198469 0.7213939 7.127914 -0.659962 8.867427 -4.126979 1.332817 23.22167 8.545829 3.595936 -19.853 9.164838 4.697303 -19.54471 10.79962 79.91151 41.71964 -7.949418 -0 0 15.79326 -31.23392 21.1447 16.29712 3.712921 -18.558 -1.391522 -92.69951 28.7262 25.37911 0 0 -17.14205 -2.068483 13.42343 20.29212
-1504.712 82.31745 2783.229 -15.40469 -6.15121 -75.90917 1.435964 4.479797 6.686954 -0 34.17388 -0 5.835025 -18.76799 -12.24394 -2.975416 1.726473 -6.825536 -0 39.75791 -0 -10.84783 -12.73491 20.3379 -2.198487 0.7213945 7.127943 -0.6599592 8.867412 -4.126964 1.332815 23.22168 8.545817 3.595932 -19.85302 9.164828 4.697293 -19.54476 10.79962 79.91142 41.71969 -7.949296 -0 0 15.79331 -31.23389 21.14466 16.29712 3.712895 -18.55797 -1.391501 -92.69956 28.72623 25.37921 0 0 -17.14201 -2.068479 13.42342 20.29212
